<?xml version="1.0" encoding="UTF-8" standalone="no"?><svg xmlns="http://www.w3.org/2000/svg" xmlns:xlink="http://www.w3.org/1999/xlink" contentScriptType="application/ecmascript" contentStyleType="text/css" height="568px" preserveAspectRatio="none" style="width:741px;height:568px;" version="1.1" viewBox="0 0 741 568" width="741px" zoomAndPan="magnify"><defs><filter height="300%" id="faym3u7" width="300%" x="-1" y="-1"><feGaussianBlur result="blurOut" stdDeviation="2.0"/><feColorMatrix in="blurOut" result="blurOut2" type="matrix" values="0 0 0 0 0 0 0 0 0 0 0 0 0 0 0 0 0 0 .4 0"/><feOffset dx="4.0" dy="4.0" in="blurOut2" result="blurOut3"/><feBlend in="SourceGraphic" in2="blurOut3" mode="normal"/></filter></defs><g><text fill="#000000" font-family="sans-serif" font-size="14" font-weight="bold" lengthAdjust="spacingAndGlyphs" textLength="195" x="275.25" y="23.5352">Elm + Okta + LocalStorage</text><rect fill="#FFFFFF" filter="url(#faym3u7)" height="307.75" style="stroke: #A80036; stroke-width: 1.0;" width="10" x="33" y="212.2188"/><rect fill="#FFFFFF" filter="url(#faym3u7)" height="29.3105" style="stroke: #A80036; stroke-width: 1.0;" width="10" x="165" y="99.9766"/><rect fill="#FFFFFF" filter="url(#faym3u7)" height="29.3105" style="stroke: #A80036; stroke-width: 1.0;" width="10" x="165" y="358.7715"/><rect fill="#FFFFFF" filter="url(#faym3u7)" height="361.3711" style="stroke: #A80036; stroke-width: 1.0;" width="10" x="249.5" y="158.5977"/><rect fill="#FFFFFF" filter="url(#faym3u7)" height="87.9316" style="stroke: #A80036; stroke-width: 1.0;" width="10" x="428.5" y="241.5293"/><rect fill="#FFFFFF" filter="url(#faym3u7)" height="29.3105" style="stroke: #A80036; stroke-width: 1.0;" width="10" x="610.5" y="270.8398"/><rect fill="#FFFFFF" filter="url(#faym3u7)" height="30" style="stroke: #A80036; stroke-width: 1.0;" width="10" x="681.5" y="417.3926"/><rect fill="#FFFFFF" filter="url(#faym3u7)" height="339.0605" style="stroke: #000000; stroke-width: 2.0;" width="719.5" x="13" y="173.9082"/><rect fill="#FFFFFF" height="57.2656" style="stroke: none; stroke-width: 1.0;" width="719.5" x="13" y="455.7031"/><line style="stroke: #A80036; stroke-width: 1.0; stroke-dasharray: 5.0,5.0;" x1="38" x2="38" y1="68.9766" y2="529.9688"/><line style="stroke: #A80036; stroke-width: 1.0; stroke-dasharray: 5.0,5.0;" x1="170" x2="170" y1="68.9766" y2="529.9688"/><line style="stroke: #A80036; stroke-width: 1.0; stroke-dasharray: 5.0,5.0;" x1="254" x2="254" y1="68.9766" y2="529.9688"/><line style="stroke: #A80036; stroke-width: 1.0; stroke-dasharray: 5.0,5.0;" x1="433.5" x2="433.5" y1="68.9766" y2="529.9688"/><line style="stroke: #A80036; stroke-width: 1.0; stroke-dasharray: 5.0,5.0;" x1="615.5" x2="615.5" y1="68.9766" y2="529.9688"/><line style="stroke: #A80036; stroke-width: 1.0; stroke-dasharray: 5.0,5.0;" x1="686.5" x2="686.5" y1="68.9766" y2="529.9688"/><rect fill="#FEFECE" filter="url(#faym3u7)" height="30.4883" style="stroke: #A80036; stroke-width: 1.5;" width="26" x="23" y="33.4883"/><text fill="#000000" font-family="sans-serif" font-size="14" lengthAdjust="spacingAndGlyphs" textLength="12" x="30" y="54.0234">JS</text><rect fill="#FEFECE" filter="url(#faym3u7)" height="30.4883" style="stroke: #A80036; stroke-width: 1.5;" width="26" x="23" y="528.9688"/><text fill="#000000" font-family="sans-serif" font-size="14" lengthAdjust="spacingAndGlyphs" textLength="12" x="30" y="549.5039">JS</text><rect fill="#FEFECE" filter="url(#faym3u7)" height="30.4883" style="stroke: #A80036; stroke-width: 1.5;" width="102" x="117" y="33.4883"/><text fill="#000000" font-family="sans-serif" font-size="14" lengthAdjust="spacingAndGlyphs" textLength="88" x="124" y="54.0234">LocalStorage</text><rect fill="#FEFECE" filter="url(#faym3u7)" height="30.4883" style="stroke: #A80036; stroke-width: 1.5;" width="102" x="117" y="528.9688"/><text fill="#000000" font-family="sans-serif" font-size="14" lengthAdjust="spacingAndGlyphs" textLength="88" x="124" y="549.5039">LocalStorage</text><rect fill="#FEFECE" filter="url(#faym3u7)" height="30.4883" style="stroke: #A80036; stroke-width: 1.5;" width="39" x="233" y="33.4883"/><text fill="#000000" font-family="sans-serif" font-size="14" lengthAdjust="spacingAndGlyphs" textLength="25" x="240" y="54.0234">Elm</text><rect fill="#FEFECE" filter="url(#faym3u7)" height="30.4883" style="stroke: #A80036; stroke-width: 1.5;" width="39" x="233" y="528.9688"/><text fill="#000000" font-family="sans-serif" font-size="14" lengthAdjust="spacingAndGlyphs" textLength="25" x="240" y="549.5039">Elm</text><rect fill="#FEFECE" filter="url(#faym3u7)" height="30.4883" style="stroke: #A80036; stroke-width: 1.5;" width="144" x="359.5" y="33.4883"/><text fill="#000000" font-family="sans-serif" font-size="14" lengthAdjust="spacingAndGlyphs" textLength="130" x="366.5" y="54.0234">Okta Signin Widget</text><rect fill="#FEFECE" filter="url(#faym3u7)" height="30.4883" style="stroke: #A80036; stroke-width: 1.5;" width="144" x="359.5" y="528.9688"/><text fill="#000000" font-family="sans-serif" font-size="14" lengthAdjust="spacingAndGlyphs" textLength="130" x="366.5" y="549.5039">Okta Signin Widget</text><rect fill="#FEFECE" filter="url(#faym3u7)" height="30.4883" style="stroke: #A80036; stroke-width: 1.5;" width="46" x="590.5" y="33.4883"/><text fill="#000000" font-family="sans-serif" font-size="14" lengthAdjust="spacingAndGlyphs" textLength="32" x="597.5" y="54.0234">Okta</text><rect fill="#FEFECE" filter="url(#faym3u7)" height="30.4883" style="stroke: #A80036; stroke-width: 1.5;" width="46" x="590.5" y="528.9688"/><text fill="#000000" font-family="sans-serif" font-size="14" lengthAdjust="spacingAndGlyphs" textLength="32" x="597.5" y="549.5039">Okta</text><rect fill="#FEFECE" filter="url(#faym3u7)" height="30.4883" style="stroke: #A80036; stroke-width: 1.5;" width="68" x="650.5" y="33.4883"/><text fill="#000000" font-family="sans-serif" font-size="14" lengthAdjust="spacingAndGlyphs" textLength="54" x="657.5" y="54.0234">Window</text><rect fill="#FEFECE" filter="url(#faym3u7)" height="30.4883" style="stroke: #A80036; stroke-width: 1.5;" width="68" x="650.5" y="528.9688"/><text fill="#000000" font-family="sans-serif" font-size="14" lengthAdjust="spacingAndGlyphs" textLength="54" x="657.5" y="549.5039">Window</text><rect fill="#FFFFFF" filter="url(#faym3u7)" height="307.75" style="stroke: #A80036; stroke-width: 1.0;" width="10" x="33" y="212.2188"/><rect fill="#FFFFFF" filter="url(#faym3u7)" height="29.3105" style="stroke: #A80036; stroke-width: 1.0;" width="10" x="165" y="99.9766"/><rect fill="#FFFFFF" filter="url(#faym3u7)" height="29.3105" style="stroke: #A80036; stroke-width: 1.0;" width="10" x="165" y="358.7715"/><rect fill="#FFFFFF" filter="url(#faym3u7)" height="361.3711" style="stroke: #A80036; stroke-width: 1.0;" width="10" x="249.5" y="158.5977"/><rect fill="#FFFFFF" filter="url(#faym3u7)" height="87.9316" style="stroke: #A80036; stroke-width: 1.0;" width="10" x="428.5" y="241.5293"/><rect fill="#FFFFFF" filter="url(#faym3u7)" height="29.3105" style="stroke: #A80036; stroke-width: 1.0;" width="10" x="610.5" y="270.8398"/><rect fill="#FFFFFF" filter="url(#faym3u7)" height="30" style="stroke: #A80036; stroke-width: 1.0;" width="10" x="681.5" y="417.3926"/><polygon fill="#A80036" points="153,95.9766,163,99.9766,153,103.9766,157,99.9766" style="stroke: #A80036; stroke-width: 1.0;"/><line style="stroke: #A80036; stroke-width: 1.0;" x1="38" x2="159" y1="99.9766" y2="99.9766"/><text fill="#000000" font-family="sans-serif" font-size="13" font-weight="bold" lengthAdjust="spacingAndGlyphs" textLength="9" x="45" y="95.5449">1</text><text fill="#000000" font-family="sans-serif" font-size="13" lengthAdjust="spacingAndGlyphs" textLength="91" x="58" y="95.5449">&lt;&lt;get user&gt;&gt;</text><polygon fill="#A80036" points="49,125.2871,39,129.2871,49,133.2871,45,129.2871" style="stroke: #A80036; stroke-width: 1.0;"/><line style="stroke: #A80036; stroke-width: 1.0; stroke-dasharray: 2.0,2.0;" x1="43" x2="169" y1="129.2871" y2="129.2871"/><text fill="#000000" font-family="sans-serif" font-size="13" font-weight="bold" lengthAdjust="spacingAndGlyphs" textLength="9" x="55" y="124.8555">2</text><text fill="#000000" font-family="sans-serif" font-size="13" lengthAdjust="spacingAndGlyphs" textLength="67" x="68" y="124.8555">&lt;&lt;user&gt;&gt;</text><polygon fill="#A80036" points="237.5,154.5977,247.5,158.5977,237.5,162.5977,241.5,158.5977" style="stroke: #A80036; stroke-width: 1.0;"/><line style="stroke: #A80036; stroke-width: 1.0;" x1="38" x2="243.5" y1="158.5977" y2="158.5977"/><text fill="#000000" font-family="sans-serif" font-size="13" font-weight="bold" lengthAdjust="spacingAndGlyphs" textLength="9" x="45" y="154.166">3</text><text fill="#000000" font-family="sans-serif" font-size="13" lengthAdjust="spacingAndGlyphs" textLength="137" x="58" y="154.166">&lt;&lt;fullscreen(user)&gt;&gt;</text><rect fill="none" height="339.0605" style="stroke: #000000; stroke-width: 2.0;" width="719.5" x="13" y="173.9082"/><polygon fill="#EEEEEE" points="13,173.9082,75,173.9082,75,180.9082,65,190.9082,13,190.9082,13,173.9082" style="stroke: #000000; stroke-width: 2.0;"/><text fill="#000000" font-family="sans-serif" font-size="13" font-weight="bold" lengthAdjust="spacingAndGlyphs" textLength="17" x="28" y="187.4766">alt</text><text fill="#000000" font-family="sans-serif" font-size="11" font-weight="bold" lengthAdjust="spacingAndGlyphs" textLength="80" x="90" y="186.543">[user == null]</text><polygon fill="#A80036" points="54,208.2188,44,212.2188,54,212.2188" style="stroke: #A80036; stroke-width: 1.0;"/><line style="stroke: #A80036; stroke-width: 1.0;" x1="43" x2="248.5" y1="212.2188" y2="212.2188"/><text fill="#000000" font-family="sans-serif" font-size="13" font-weight="bold" lengthAdjust="spacingAndGlyphs" textLength="9" x="60" y="207.7871">4</text><text fill="#000000" font-family="sans-serif" font-size="13" lengthAdjust="spacingAndGlyphs" textLength="109" x="73" y="207.7871">&lt;&lt;show login&gt;&gt;</text><polygon fill="#A80036" points="416.5,237.5293,426.5,241.5293,416.5,241.5293" style="stroke: #A80036; stroke-width: 1.0;"/><line style="stroke: #A80036; stroke-width: 1.0;" x1="43" x2="427.5" y1="241.5293" y2="241.5293"/><text fill="#000000" font-family="sans-serif" font-size="13" font-weight="bold" lengthAdjust="spacingAndGlyphs" textLength="9" x="50" y="237.0977">5</text><text fill="#000000" font-family="sans-serif" font-size="13" lengthAdjust="spacingAndGlyphs" textLength="91" x="63" y="237.0977">&lt;&lt;renderEl&gt;&gt;</text><polygon fill="#A80036" points="598.5,266.8398,608.5,270.8398,598.5,274.8398,602.5,270.8398" style="stroke: #A80036; stroke-width: 1.0;"/><line style="stroke: #A80036; stroke-width: 1.0;" x1="438.5" x2="604.5" y1="270.8398" y2="270.8398"/><text fill="#000000" font-family="sans-serif" font-size="13" font-weight="bold" lengthAdjust="spacingAndGlyphs" textLength="9" x="445.5" y="266.4082">6</text><text fill="#000000" font-family="sans-serif" font-size="13" lengthAdjust="spacingAndGlyphs" textLength="79" x="458.5" y="266.4082">&lt;&lt;signin&gt;&gt;</text><polygon fill="#A80036" points="449.5,296.1504,439.5,300.1504,449.5,304.1504,445.5,300.1504" style="stroke: #A80036; stroke-width: 1.0;"/><line style="stroke: #A80036; stroke-width: 1.0; stroke-dasharray: 2.0,2.0;" x1="443.5" x2="614.5" y1="300.1504" y2="300.1504"/><text fill="#000000" font-family="sans-serif" font-size="13" font-weight="bold" lengthAdjust="spacingAndGlyphs" textLength="9" x="455.5" y="295.7188">7</text><text fill="#000000" font-family="sans-serif" font-size="13" lengthAdjust="spacingAndGlyphs" textLength="135" x="468.5" y="295.7188">&lt;&lt;token + profile&gt;&gt;</text><polygon fill="#A80036" points="54,325.4609,44,329.4609,54,333.4609,50,329.4609" style="stroke: #A80036; stroke-width: 1.0;"/><line style="stroke: #A80036; stroke-width: 1.0; stroke-dasharray: 2.0,2.0;" x1="48" x2="432.5" y1="329.4609" y2="329.4609"/><text fill="#000000" font-family="sans-serif" font-size="13" font-weight="bold" lengthAdjust="spacingAndGlyphs" textLength="9" x="60" y="325.0293">8</text><text fill="#000000" font-family="sans-serif" font-size="13" lengthAdjust="spacingAndGlyphs" textLength="135" x="73" y="325.0293">&lt;&lt;token + profile&gt;&gt;</text><polygon fill="#A80036" points="153,354.7715,163,358.7715,153,362.7715,157,358.7715" style="stroke: #A80036; stroke-width: 1.0;"/><line style="stroke: #A80036; stroke-width: 1.0;" x1="43" x2="159" y1="358.7715" y2="358.7715"/><text fill="#000000" font-family="sans-serif" font-size="13" font-weight="bold" lengthAdjust="spacingAndGlyphs" textLength="9" x="50" y="354.3398">9</text><text fill="#000000" font-family="sans-serif" font-size="13" lengthAdjust="spacingAndGlyphs" textLength="90" x="63" y="354.3398">&lt;&lt;set user&gt;&gt;</text><polygon fill="#A80036" points="54,384.082,44,388.082,54,392.082,50,388.082" style="stroke: #A80036; stroke-width: 1.0;"/><line style="stroke: #A80036; stroke-width: 1.0; stroke-dasharray: 2.0,2.0;" x1="48" x2="169" y1="388.082" y2="388.082"/><text fill="#000000" font-family="sans-serif" font-size="13" font-weight="bold" lengthAdjust="spacingAndGlyphs" textLength="18" x="60" y="383.6504">10</text><text fill="#000000" font-family="sans-serif" font-size="13" lengthAdjust="spacingAndGlyphs" textLength="67" x="82" y="383.6504">&lt;&lt;void&gt;&gt;</text><polygon fill="#A80036" points="669.5,413.3926,679.5,417.3926,669.5,417.3926" style="stroke: #A80036; stroke-width: 1.0;"/><line style="stroke: #A80036; stroke-width: 1.0;" x1="43" x2="680.5" y1="417.3926" y2="417.3926"/><text fill="#000000" font-family="sans-serif" font-size="13" font-weight="bold" lengthAdjust="spacingAndGlyphs" textLength="18" x="50" y="412.9609">11</text><text fill="#000000" font-family="sans-serif" font-size="13" lengthAdjust="spacingAndGlyphs" textLength="84" x="72" y="412.9609">&lt;&lt;refresh&gt;&gt;</text><line style="stroke: #000000; stroke-width: 1.0; stroke-dasharray: 2.0,2.0;" x1="13" x2="732.5" y1="456.7031" y2="456.7031"/><text fill="#000000" font-family="sans-serif" font-size="11" font-weight="bold" lengthAdjust="spacingAndGlyphs" textLength="74" x="18" y="467.3379">[user != null]</text><line style="stroke: #A80036; stroke-width: 1.0;" x1="259.5" x2="301.5" y1="491.9688" y2="491.9688"/><line style="stroke: #A80036; stroke-width: 1.0;" x1="301.5" x2="301.5" y1="491.9688" y2="504.9688"/><line style="stroke: #A80036; stroke-width: 1.0;" x1="260.5" x2="301.5" y1="504.9688" y2="504.9688"/><polygon fill="#A80036" points="270.5,500.9688,260.5,504.9688,270.5,508.9688,266.5,504.9688" style="stroke: #A80036; stroke-width: 1.0;"/><text fill="#000000" font-family="sans-serif" font-size="13" font-weight="bold" lengthAdjust="spacingAndGlyphs" textLength="18" x="266.5" y="487.2266">12</text><text fill="#000000" font-family="sans-serif" font-size="13" lengthAdjust="spacingAndGlyphs" textLength="133" x="288.5" y="487.2266">&lt;&lt;show user info&gt;&gt;</text></g></svg>