<?xml version="1.0" encoding="UTF-8" standalone="no"?><svg xmlns="http://www.w3.org/2000/svg" xmlns:xlink="http://www.w3.org/1999/xlink" contentScriptType="application/ecmascript" contentStyleType="text/css" height="252px" preserveAspectRatio="none" style="width:692px;height:252px;" version="1.1" viewBox="0 0 692 252" width="692px" zoomAndPan="magnify"><defs><filter height="300%" id="fugasci" width="300%" x="-1" y="-1"><feGaussianBlur result="blurOut" stdDeviation="2.0"/><feColorMatrix in="blurOut" result="blurOut2" type="matrix" values="0 0 0 0 0 0 0 0 0 0 0 0 0 0 0 0 0 0 .4 0"/><feOffset dx="4.0" dy="4.0" in="blurOut2" result="blurOut3"/><feBlend in="SourceGraphic" in2="blurOut3" mode="normal"/></filter></defs><g><!--entity Model--><rect fill="#FEFECE" filter="url(#fugasci)" height="36.4883" style="stroke: #A80036; stroke-width: 1.5;" width="62" x="427.5" y="94"/><rect fill="#FEFECE" height="5" style="stroke: #A80036; stroke-width: 1.5;" width="10" x="422.5" y="99"/><rect fill="#FEFECE" height="5" style="stroke: #A80036; stroke-width: 1.5;" width="10" x="422.5" y="120.4883"/><text fill="#000000" font-family="sans-serif" font-size="14" lengthAdjust="spacingAndGlyphs" textLength="42" x="437.5" y="117.5352">Model</text><!--entity View--><rect fill="#FEFECE" filter="url(#fugasci)" height="36.4883" style="stroke: #A80036; stroke-width: 1.5;" width="52" x="559.5" y="94"/><rect fill="#FEFECE" height="5" style="stroke: #A80036; stroke-width: 1.5;" width="10" x="554.5" y="99"/><rect fill="#FEFECE" height="5" style="stroke: #A80036; stroke-width: 1.5;" width="10" x="554.5" y="120.4883"/><text fill="#000000" font-family="sans-serif" font-size="14" lengthAdjust="spacingAndGlyphs" textLength="32" x="569.5" y="117.5352">View</text><polygon fill="#FBFB77" filter="url(#fugasci)" points="487.5,8,487.5,33.3105,683.5,33.3105,683.5,18,673.5,8,487.5,8" style="stroke: #A80036; stroke-width: 1.0;"/><polygon fill="#FBFB77" points="487.5,8,487.5,33.3105,581.5,33.3105,585.5,93.773,589.5,33.3105,683.5,33.3105,683.5,18,673.5,8,487.5,8" style="stroke: #A80036; stroke-width: 1.0;"/><line style="stroke: #A80036; stroke-width: 1.0;" x1="673.5" x2="673.5" y1="8" y2="18"/><line style="stroke: #A80036; stroke-width: 1.0;" x1="683.5" x2="673.5" y1="18" y2="18"/><text fill="#000000" font-family="sans-serif" font-size="13" lengthAdjust="spacingAndGlyphs" textLength="175" x="493.5" y="25.5684">"view : Model -&gt; Html Msg"</text><!--entity Msg--><rect fill="#FEFECE" filter="url(#fugasci)" height="36.4883" style="stroke: #A80036; stroke-width: 1.5;" width="48" x="354.5" y="207"/><rect fill="#FEFECE" height="5" style="stroke: #A80036; stroke-width: 1.5;" width="10" x="349.5" y="212"/><rect fill="#FEFECE" height="5" style="stroke: #A80036; stroke-width: 1.5;" width="10" x="349.5" y="233.4883"/><text fill="#000000" font-family="sans-serif" font-size="14" lengthAdjust="spacingAndGlyphs" textLength="28" x="364.5" y="230.5352">Msg</text><!--entity Elm Platform--><rect fill="#FEFECE" filter="url(#fugasci)" height="36.4883" style="stroke: #A80036; stroke-width: 1.5;" width="107" x="6" y="94"/><rect fill="#FEFECE" height="5" style="stroke: #A80036; stroke-width: 1.5;" width="10" x="1" y="99"/><rect fill="#FEFECE" height="5" style="stroke: #A80036; stroke-width: 1.5;" width="10" x="1" y="120.4883"/><text fill="#000000" font-family="sans-serif" font-size="14" lengthAdjust="spacingAndGlyphs" textLength="87" x="16" y="117.5352">Elm Platform</text><!--entity (Model, Cmd Msg)--><rect fill="#FEFECE" filter="url(#fugasci)" height="36.4883" style="stroke: #A80036; stroke-width: 1.5;" width="144" x="192.5" y="94"/><rect fill="#FEFECE" height="5" style="stroke: #A80036; stroke-width: 1.5;" width="10" x="187.5" y="99"/><rect fill="#FEFECE" height="5" style="stroke: #A80036; stroke-width: 1.5;" width="10" x="187.5" y="120.4883"/><text fill="#000000" font-family="sans-serif" font-size="14" lengthAdjust="spacingAndGlyphs" textLength="124" x="202.5" y="117.5352">(Model, Cmd Msg)</text><polygon fill="#FBFB77" filter="url(#fugasci)" points="109.5,8,109.5,33.3105,419.5,33.3105,419.5,18,409.5,8,109.5,8" style="stroke: #A80036; stroke-width: 1.0;"/><polygon fill="#FBFB77" points="109.5,8,109.5,33.3105,260.5,33.3105,264.5,93.773,268.5,33.3105,419.5,33.3105,419.5,18,409.5,8,109.5,8" style="stroke: #A80036; stroke-width: 1.0;"/><line style="stroke: #A80036; stroke-width: 1.0;" x1="409.5" x2="409.5" y1="8" y2="18"/><line style="stroke: #A80036; stroke-width: 1.0;" x1="419.5" x2="409.5" y1="18" y2="18"/><text fill="#000000" font-family="sans-serif" font-size="13" lengthAdjust="spacingAndGlyphs" textLength="289" x="115.5" y="25.5684">"update : Msg -&gt; Model -&gt; (Model, Cmd Msg)</text><path d="M489.568,112 C509.251,112 534.619,112 554.323,112 " fill="none" style="stroke: #A80036; stroke-width: 1.0;"/><polygon fill="#A80036" points="559.462,112,550.462,108,554.462,112,550.462,116,559.462,112" style="stroke: #A80036; stroke-width: 1.0;"/><text fill="#000000" font-family="sans-serif" font-size="13" lengthAdjust="spacingAndGlyphs" textLength="28" x="510.5" y="105.5684">view</text><path d="M559.283,127.058 C520.394,147.9119 447.684,186.9012 407.336,208.537 " fill="none" style="stroke: #A80036; stroke-width: 1.0; stroke-dasharray: 7.0,7.0;"/><polygon fill="#A80036" points="402.581,211.0871,412.4029,210.3591,406.9875,208.7242,408.6223,203.3088,402.581,211.0871" style="stroke: #A80036; stroke-width: 1.0;"/><path d="M354.275,215.5705 C303.282,197.827 183.803,156.2527 113.612,131.829 " fill="none" style="stroke: #A80036; stroke-width: 1.0; stroke-dasharray: 7.0,7.0;"/><polygon fill="#A80036" points="108.645,130.1,115.8312,136.8348,113.3674,131.7427,118.4596,129.2789,108.645,130.1" style="stroke: #A80036; stroke-width: 1.0;"/><text fill="#000000" font-family="sans-serif" font-size="13" lengthAdjust="spacingAndGlyphs" textLength="51" x="239.5" y="173.5684">listenTo</text><path d="M113.094,112 C135.687,112 162.422,112 187.091,112 " fill="none" style="stroke: #A80036; stroke-width: 1.0;"/><polygon fill="#A80036" points="192.322,112,183.322,108,187.322,112,183.322,116,192.322,112" style="stroke: #A80036; stroke-width: 1.0;"/><text fill="#000000" font-family="sans-serif" font-size="13" lengthAdjust="spacingAndGlyphs" textLength="43" x="131.25" y="105.5684">update</text><path d="M336.738,112 C365.783,112 398.002,112 421.998,112 " fill="none" style="stroke: #A80036; stroke-width: 1.0;"/><polygon fill="#A80036" points="427.297,112,418.297,108,422.297,112,418.297,116,427.297,112" style="stroke: #A80036; stroke-width: 1.0;"/><text fill="#000000" font-family="sans-serif" font-size="13" lengthAdjust="spacingAndGlyphs" textLength="54" x="355" y="105.5684">generate</text></g></svg>