<?xml version="1.0" encoding="UTF-8" standalone="no"?><svg xmlns="http://www.w3.org/2000/svg" xmlns:xlink="http://www.w3.org/1999/xlink" contentScriptType="application/ecmascript" contentStyleType="text/css" height="518px" preserveAspectRatio="none" style="width:683px;height:518px;" version="1.1" viewBox="0 0 683 518" width="683px" zoomAndPan="magnify"><defs><filter height="300%" id="fi0o0jh" width="300%" x="-1" y="-1"><feGaussianBlur result="blurOut" stdDeviation="2.0"/><feColorMatrix in="blurOut" result="blurOut2" type="matrix" values="0 0 0 0 0 0 0 0 0 0 0 0 0 0 0 0 0 0 .4 0"/><feOffset dx="4.0" dy="4.0" in="blurOut2" result="blurOut3"/><feBlend in="SourceGraphic" in2="blurOut3" mode="normal"/></filter></defs><g><text fill="#000000" font-family="sans-serif" font-size="14" font-weight="bold" lengthAdjust="spacingAndGlyphs" textLength="93" x="297.25" y="23.5352">Elm FFI Okta</text><rect fill="#FFFFFF" filter="url(#fi0o0jh)" height="362.3711" style="stroke: #A80036; stroke-width: 1.0;" width="10" x="39.5" y="107.9766"/><rect fill="#FFFFFF" filter="url(#fi0o0jh)" height="146.5527" style="stroke: #A80036; stroke-width: 1.0;" width="10" x="262.5" y="266.1738"/><rect fill="#FFFFFF" filter="url(#fi0o0jh)" height="87.9316" style="stroke: #A80036; stroke-width: 1.0;" width="10" x="444.5" y="295.4844"/><rect fill="#FFFFFF" filter="url(#fi0o0jh)" height="29.3105" style="stroke: #A80036; stroke-width: 1.0;" width="10" x="634.5" y="324.7949"/><rect fill="#FFFFFF" filter="url(#fi0o0jh)" height="292.75" style="stroke: #000000; stroke-width: 2.0;" width="661.5" x="13" y="170.5977"/><rect fill="#FFFFFF" height="233.1289" style="stroke: none; stroke-width: 1.0;" width="661.5" x="13" y="230.2188"/><line style="stroke: #A80036; stroke-width: 1.0; stroke-dasharray: 5.0,5.0;" x1="44" x2="44" y1="68.9766" y2="480.3477"/><line style="stroke: #A80036; stroke-width: 1.0; stroke-dasharray: 5.0,5.0;" x1="267.5" x2="267.5" y1="68.9766" y2="480.3477"/><line style="stroke: #A80036; stroke-width: 1.0; stroke-dasharray: 5.0,5.0;" x1="449.5" x2="449.5" y1="68.9766" y2="480.3477"/><line style="stroke: #A80036; stroke-width: 1.0; stroke-dasharray: 5.0,5.0;" x1="639.5" x2="639.5" y1="68.9766" y2="480.3477"/><rect fill="#FEFECE" filter="url(#fi0o0jh)" height="30.4883" style="stroke: #A80036; stroke-width: 1.5;" width="39" x="23" y="33.4883"/><text fill="#000000" font-family="sans-serif" font-size="14" lengthAdjust="spacingAndGlyphs" textLength="25" x="30" y="54.0234">Elm</text><rect fill="#FEFECE" filter="url(#fi0o0jh)" height="30.4883" style="stroke: #A80036; stroke-width: 1.5;" width="39" x="23" y="479.3477"/><text fill="#000000" font-family="sans-serif" font-size="14" lengthAdjust="spacingAndGlyphs" textLength="25" x="30" y="499.8828">Elm</text><rect fill="#FEFECE" filter="url(#fi0o0jh)" height="30.4883" style="stroke: #A80036; stroke-width: 1.5;" width="118" x="206.5" y="33.4883"/><text fill="#000000" font-family="sans-serif" font-size="14" lengthAdjust="spacingAndGlyphs" textLength="104" x="213.5" y="54.0234">OktaSignIn.elm</text><rect fill="#FEFECE" filter="url(#fi0o0jh)" height="30.4883" style="stroke: #A80036; stroke-width: 1.5;" width="118" x="206.5" y="479.3477"/><text fill="#000000" font-family="sans-serif" font-size="14" lengthAdjust="spacingAndGlyphs" textLength="104" x="213.5" y="499.8828">OktaSignIn.elm</text><rect fill="#FEFECE" filter="url(#fi0o0jh)" height="30.4883" style="stroke: #A80036; stroke-width: 1.5;" width="104" x="395.5" y="33.4883"/><text fill="#000000" font-family="sans-serif" font-size="14" lengthAdjust="spacingAndGlyphs" textLength="90" x="402.5" y="54.0234">OktaSignin.js</text><rect fill="#FEFECE" filter="url(#fi0o0jh)" height="30.4883" style="stroke: #A80036; stroke-width: 1.5;" width="104" x="395.5" y="479.3477"/><text fill="#000000" font-family="sans-serif" font-size="14" lengthAdjust="spacingAndGlyphs" textLength="90" x="402.5" y="499.8828">OktaSignin.js</text><rect fill="#FEFECE" filter="url(#fi0o0jh)" height="30.4883" style="stroke: #A80036; stroke-width: 1.5;" width="46" x="614.5" y="33.4883"/><text fill="#000000" font-family="sans-serif" font-size="14" lengthAdjust="spacingAndGlyphs" textLength="32" x="621.5" y="54.0234">Okta</text><rect fill="#FEFECE" filter="url(#fi0o0jh)" height="30.4883" style="stroke: #A80036; stroke-width: 1.5;" width="46" x="614.5" y="479.3477"/><text fill="#000000" font-family="sans-serif" font-size="14" lengthAdjust="spacingAndGlyphs" textLength="32" x="621.5" y="499.8828">Okta</text><rect fill="#FFFFFF" filter="url(#fi0o0jh)" height="362.3711" style="stroke: #A80036; stroke-width: 1.0;" width="10" x="39.5" y="107.9766"/><rect fill="#FFFFFF" filter="url(#fi0o0jh)" height="146.5527" style="stroke: #A80036; stroke-width: 1.0;" width="10" x="262.5" y="266.1738"/><rect fill="#FFFFFF" filter="url(#fi0o0jh)" height="87.9316" style="stroke: #A80036; stroke-width: 1.0;" width="10" x="444.5" y="295.4844"/><rect fill="#FFFFFF" filter="url(#fi0o0jh)" height="29.3105" style="stroke: #A80036; stroke-width: 1.0;" width="10" x="634.5" y="324.7949"/><line style="stroke: #A80036; stroke-width: 1.0;" x1="44.5" x2="91.5" y1="95.2871" y2="95.2871"/><line style="stroke: #A80036; stroke-width: 1.0;" x1="91.5" x2="91.5" y1="95.2871" y2="108.2871"/><line style="stroke: #A80036; stroke-width: 1.0;" x1="50.5" x2="91.5" y1="108.2871" y2="108.2871"/><polygon fill="#A80036" points="60.5,104.2871,50.5,108.2871,60.5,112.2871,56.5,108.2871" style="stroke: #A80036; stroke-width: 1.0;"/><text fill="#000000" font-family="sans-serif" font-size="13" font-weight="bold" lengthAdjust="spacingAndGlyphs" textLength="9" x="56.5" y="90.5449">1</text><text fill="#000000" font-family="sans-serif" font-size="13" lengthAdjust="spacingAndGlyphs" textLength="102" x="69.5" y="90.5449">&lt;&lt;fullscreen&gt;&gt;</text><line style="stroke: #A80036; stroke-width: 1.0;" x1="49.5" x2="91.5" y1="142.5977" y2="142.5977"/><line style="stroke: #A80036; stroke-width: 1.0;" x1="91.5" x2="91.5" y1="142.5977" y2="155.5977"/><line style="stroke: #A80036; stroke-width: 1.0;" x1="50.5" x2="91.5" y1="155.5977" y2="155.5977"/><polygon fill="#A80036" points="60.5,151.5977,50.5,155.5977,60.5,159.5977,56.5,155.5977" style="stroke: #A80036; stroke-width: 1.0;"/><text fill="#000000" font-family="sans-serif" font-size="13" font-weight="bold" lengthAdjust="spacingAndGlyphs" textLength="9" x="56.5" y="137.8555">2</text><text fill="#000000" font-family="sans-serif" font-size="13" lengthAdjust="spacingAndGlyphs" textLength="122" x="69.5" y="137.8555">&lt;&lt;model status&gt;&gt;</text><rect fill="none" height="292.75" style="stroke: #000000; stroke-width: 2.0;" width="661.5" x="13" y="170.5977"/><polygon fill="#EEEEEE" points="13,170.5977,75,170.5977,75,177.5977,65,187.5977,13,187.5977,13,170.5977" style="stroke: #000000; stroke-width: 2.0;"/><text fill="#000000" font-family="sans-serif" font-size="13" font-weight="bold" lengthAdjust="spacingAndGlyphs" textLength="17" x="28" y="184.166">alt</text><text fill="#000000" font-family="sans-serif" font-size="11" font-weight="bold" lengthAdjust="spacingAndGlyphs" textLength="82" x="90" y="183.2324">[isLoginStatus]</text><line style="stroke: #A80036; stroke-width: 1.0;" x1="49.5" x2="91.5" y1="209.2188" y2="209.2188"/><line style="stroke: #A80036; stroke-width: 1.0;" x1="91.5" x2="91.5" y1="209.2188" y2="222.2188"/><line style="stroke: #A80036; stroke-width: 1.0;" x1="50.5" x2="91.5" y1="222.2188" y2="222.2188"/><polygon fill="#A80036" points="60.5,218.2188,50.5,222.2188,60.5,226.2188,56.5,222.2188" style="stroke: #A80036; stroke-width: 1.0;"/><text fill="#000000" font-family="sans-serif" font-size="13" font-weight="bold" lengthAdjust="spacingAndGlyphs" textLength="9" x="56.5" y="204.4766">3</text><text fill="#000000" font-family="sans-serif" font-size="13" lengthAdjust="spacingAndGlyphs" textLength="177" x="69.5" y="204.4766">&lt;&lt;view - show user info&gt;&gt;</text><line style="stroke: #000000; stroke-width: 1.0; stroke-dasharray: 2.0,2.0;" x1="13" x2="674.5" y1="231.2188" y2="231.2188"/><text fill="#000000" font-family="sans-serif" font-size="11" font-weight="bold" lengthAdjust="spacingAndGlyphs" textLength="101" x="18" y="241.8535">[isNotLoginStatus]</text><polygon fill="#A80036" points="250.5,262.1738,260.5,266.1738,250.5,270.1738,254.5,266.1738" style="stroke: #A80036; stroke-width: 1.0;"/><line style="stroke: #A80036; stroke-width: 1.0;" x1="49.5" x2="256.5" y1="266.1738" y2="266.1738"/><text fill="#000000" font-family="sans-serif" font-size="13" font-weight="bold" lengthAdjust="spacingAndGlyphs" textLength="9" x="56.5" y="261.7422">4</text><text fill="#000000" font-family="sans-serif" font-size="13" lengthAdjust="spacingAndGlyphs" textLength="109" x="69.5" y="261.7422">&lt;&lt;show login&gt;&gt;</text><polygon fill="#A80036" points="432.5,291.4844,442.5,295.4844,432.5,299.4844,436.5,295.4844" style="stroke: #A80036; stroke-width: 1.0;"/><line style="stroke: #A80036; stroke-width: 1.0;" x1="272.5" x2="438.5" y1="295.4844" y2="295.4844"/><text fill="#000000" font-family="sans-serif" font-size="13" font-weight="bold" lengthAdjust="spacingAndGlyphs" textLength="9" x="279.5" y="291.0527">5</text><text fill="#000000" font-family="sans-serif" font-size="13" lengthAdjust="spacingAndGlyphs" textLength="0" x="296.5" y="291.0527"/><polygon fill="#A80036" points="622.5,320.7949,632.5,324.7949,622.5,328.7949,626.5,324.7949" style="stroke: #A80036; stroke-width: 1.0;"/><line style="stroke: #A80036; stroke-width: 1.0;" x1="454.5" x2="628.5" y1="324.7949" y2="324.7949"/><text fill="#000000" font-family="sans-serif" font-size="13" font-weight="bold" lengthAdjust="spacingAndGlyphs" textLength="9" x="461.5" y="320.3633">6</text><text fill="#000000" font-family="sans-serif" font-size="13" lengthAdjust="spacingAndGlyphs" textLength="79" x="474.5" y="320.3633">&lt;&lt;signin&gt;&gt;</text><polygon fill="#A80036" points="465.5,350.1055,455.5,354.1055,465.5,358.1055,461.5,354.1055" style="stroke: #A80036; stroke-width: 1.0;"/><line style="stroke: #A80036; stroke-width: 1.0; stroke-dasharray: 2.0,2.0;" x1="459.5" x2="638.5" y1="354.1055" y2="354.1055"/><text fill="#000000" font-family="sans-serif" font-size="13" font-weight="bold" lengthAdjust="spacingAndGlyphs" textLength="9" x="471.5" y="349.6738">7</text><text fill="#000000" font-family="sans-serif" font-size="13" lengthAdjust="spacingAndGlyphs" textLength="143" x="484.5" y="349.6738">: &lt;&lt;token + profile&gt;&gt;</text><polygon fill="#A80036" points="283.5,379.416,273.5,383.416,283.5,387.416,279.5,383.416" style="stroke: #A80036; stroke-width: 1.0;"/><line style="stroke: #A80036; stroke-width: 1.0; stroke-dasharray: 2.0,2.0;" x1="277.5" x2="448.5" y1="383.416" y2="383.416"/><text fill="#000000" font-family="sans-serif" font-size="13" font-weight="bold" lengthAdjust="spacingAndGlyphs" textLength="9" x="289.5" y="378.9844">8</text><text fill="#000000" font-family="sans-serif" font-size="13" lengthAdjust="spacingAndGlyphs" textLength="135" x="302.5" y="378.9844">&lt;&lt;token + profile&gt;&gt;</text><polygon fill="#A80036" points="60.5,408.7266,50.5,412.7266,60.5,416.7266,56.5,412.7266" style="stroke: #A80036; stroke-width: 1.0;"/><line style="stroke: #A80036; stroke-width: 1.0; stroke-dasharray: 2.0,2.0;" x1="54.5" x2="266.5" y1="412.7266" y2="412.7266"/><text fill="#000000" font-family="sans-serif" font-size="13" font-weight="bold" lengthAdjust="spacingAndGlyphs" textLength="9" x="66.5" y="408.2949">9</text><text fill="#000000" font-family="sans-serif" font-size="13" lengthAdjust="spacingAndGlyphs" textLength="135" x="79.5" y="408.2949">&lt;&lt;token + profile&gt;&gt;</text><line style="stroke: #A80036; stroke-width: 1.0;" x1="49.5" x2="91.5" y1="442.3477" y2="442.3477"/><line style="stroke: #A80036; stroke-width: 1.0;" x1="91.5" x2="91.5" y1="442.3477" y2="455.3477"/><line style="stroke: #A80036; stroke-width: 1.0;" x1="50.5" x2="91.5" y1="455.3477" y2="455.3477"/><polygon fill="#A80036" points="60.5,451.3477,50.5,455.3477,60.5,459.3477,56.5,455.3477" style="stroke: #A80036; stroke-width: 1.0;"/><text fill="#000000" font-family="sans-serif" font-size="13" font-weight="bold" lengthAdjust="spacingAndGlyphs" textLength="18" x="56.5" y="437.6055">10</text><text fill="#000000" font-family="sans-serif" font-size="13" lengthAdjust="spacingAndGlyphs" textLength="177" x="78.5" y="437.6055">&lt;&lt;view - show user info&gt;&gt;</text></g></svg>