<?xml version="1.0" encoding="UTF-8" standalone="no"?><svg xmlns="http://www.w3.org/2000/svg" xmlns:xlink="http://www.w3.org/1999/xlink" contentScriptType="application/ecmascript" contentStyleType="text/css" height="131px" preserveAspectRatio="none" style="width:741px;height:131px;" version="1.1" viewBox="0 0 741 131" width="741px" zoomAndPan="magnify"><defs><filter height="300%" id="fref6tm" width="300%" x="-1" y="-1"><feGaussianBlur result="blurOut" stdDeviation="2.0"/><feColorMatrix in="blurOut" result="blurOut2" type="matrix" values="0 0 0 0 0 0 0 0 0 0 0 0 0 0 0 0 0 0 .4 0"/><feOffset dx="4.0" dy="4.0" in="blurOut2" result="blurOut3"/><feBlend in="SourceGraphic" in2="blurOut3" mode="normal"/></filter></defs><g><text fill="#000000" font-family="sans-serif" font-size="18" lengthAdjust="spacingAndGlyphs" textLength="84" x="333" y="17.4023">Interop JS</text><!--entity (Model, Cmd Msg)--><rect fill="#FEFECE" filter="url(#fref6tm)" height="36.4883" style="stroke: #A80036; stroke-width: 1.5;" width="144" x="6" y="86.1992"/><rect fill="#FEFECE" height="5" style="stroke: #A80036; stroke-width: 1.5;" width="10" x="1" y="91.1992"/><rect fill="#FEFECE" height="5" style="stroke: #A80036; stroke-width: 1.5;" width="10" x="1" y="112.6875"/><text fill="#000000" font-family="sans-serif" font-size="14" lengthAdjust="spacingAndGlyphs" textLength="124" x="16" y="109.7344">(Model, Cmd Msg)</text><!--entity Cmd Msg--><rect fill="#FEFECE" filter="url(#fref6tm)" height="36.4883" style="stroke: #A80036; stroke-width: 1.5;" width="84" x="241" y="86.1992"/><rect fill="#FEFECE" height="5" style="stroke: #A80036; stroke-width: 1.5;" width="10" x="236" y="91.1992"/><rect fill="#FEFECE" height="5" style="stroke: #A80036; stroke-width: 1.5;" width="10" x="236" y="112.6875"/><text fill="#000000" font-family="sans-serif" font-size="14" lengthAdjust="spacingAndGlyphs" textLength="64" x="251" y="109.7344">Cmd Msg</text><!--entity JS--><rect fill="#FEFECE" filter="url(#fref6tm)" height="36.4883" style="stroke: #A80036; stroke-width: 1.5;" width="32" x="413" y="86.1992"/><rect fill="#FEFECE" height="5" style="stroke: #A80036; stroke-width: 1.5;" width="10" x="408" y="91.1992"/><rect fill="#FEFECE" height="5" style="stroke: #A80036; stroke-width: 1.5;" width="10" x="408" y="112.6875"/><text fill="#000000" font-family="sans-serif" font-size="14" lengthAdjust="spacingAndGlyphs" textLength="12" x="423" y="109.7344">JS</text><!--entity Sub Msg--><rect fill="#FEFECE" filter="url(#fref6tm)" height="36.4883" style="stroke: #A80036; stroke-width: 1.5;" width="78" x="515" y="86.1992"/><rect fill="#FEFECE" height="5" style="stroke: #A80036; stroke-width: 1.5;" width="10" x="510" y="91.1992"/><rect fill="#FEFECE" height="5" style="stroke: #A80036; stroke-width: 1.5;" width="10" x="510" y="112.6875"/><text fill="#000000" font-family="sans-serif" font-size="14" lengthAdjust="spacingAndGlyphs" textLength="58" x="525" y="109.7344">Sub Msg</text><!--entity Msg--><rect fill="#FEFECE" filter="url(#fref6tm)" height="36.4883" style="stroke: #A80036; stroke-width: 1.5;" width="48" x="684" y="86.1992"/><rect fill="#FEFECE" height="5" style="stroke: #A80036; stroke-width: 1.5;" width="10" x="679" y="91.1992"/><rect fill="#FEFECE" height="5" style="stroke: #A80036; stroke-width: 1.5;" width="10" x="679" y="112.6875"/><text fill="#000000" font-family="sans-serif" font-size="14" lengthAdjust="spacingAndGlyphs" textLength="28" x="694" y="109.7344">Msg</text><path d="M150.275,104.1992 C178.579,104.1992 210.26,104.1992 235.57,104.1992 " fill="none" style="stroke: #A80036; stroke-width: 1.0;"/><polygon fill="#A80036" points="240.87,104.1992,231.87,100.1992,235.87,104.1992,231.87,108.1992,240.87,104.1992" style="stroke: #A80036; stroke-width: 1.0;"/><text fill="#000000" font-family="sans-serif" font-size="13" lengthAdjust="spacingAndGlyphs" textLength="54" x="168.5" y="97.7676">generate</text><path d="M325.229,104.1992 C352.247,104.1992 386.149,104.1992 407.7,104.1992 " fill="none" style="stroke: #A80036; stroke-width: 1.0; stroke-dasharray: 7.0,7.0;"/><polygon fill="#A80036" points="412.901,104.1992,403.901,100.1992,407.901,104.1992,403.901,108.1992,412.901,104.1992" style="stroke: #A80036; stroke-width: 1.0;"/><text fill="#000000" font-family="sans-serif" font-size="13" lengthAdjust="spacingAndGlyphs" textLength="51" x="343.5" y="97.7676">listenTo</text><path d="M445.086,104.1992 C461.392,104.1992 487.355,104.1992 509.842,104.1992 " fill="none" style="stroke: #A80036; stroke-width: 1.0;"/><polygon fill="#A80036" points="514.879,104.1992,505.879,100.1992,509.879,104.1992,505.879,108.1992,514.879,104.1992" style="stroke: #A80036; stroke-width: 1.0;"/><text fill="#000000" font-family="sans-serif" font-size="13" lengthAdjust="spacingAndGlyphs" textLength="30" x="465" y="97.7676">send</text><path d="M321.934,86.1126 C370.679,65.6355 456.91,36.541 532,48.1992 C585.303,56.4749 644.553,78.0563 678.916,91.8826 " fill="none" style="stroke: #A80036; stroke-width: 1.0;"/><polygon fill="#A80036" points="683.802,93.8637,676.9643,86.7753,679.1683,91.9851,673.9585,94.1892,683.802,93.8637" style="stroke: #A80036; stroke-width: 1.0;"/><text fill="#000000" font-family="sans-serif" font-size="13" lengthAdjust="spacingAndGlyphs" textLength="54" x="477" y="52.7676">generate</text><path d="M593.259,104.1992 C619.882,104.1992 654.502,104.1992 678.722,104.1992 " fill="none" style="stroke: #A80036; stroke-width: 1.0;"/><polygon fill="#A80036" points="683.726,104.1992,674.726,100.1992,678.726,104.1992,674.726,108.1992,683.726,104.1992" style="stroke: #A80036; stroke-width: 1.0;"/><text fill="#000000" font-family="sans-serif" font-size="13" lengthAdjust="spacingAndGlyphs" textLength="54" x="611.5" y="97.7676">generate</text></g></svg>