<?xml version="1.0" encoding="UTF-8" standalone="no"?><svg xmlns="http://www.w3.org/2000/svg" xmlns:xlink="http://www.w3.org/1999/xlink" contentScriptType="application/ecmascript" contentStyleType="text/css" height="273px" preserveAspectRatio="none" style="width:692px;height:273px;" version="1.1" viewBox="0 0 692 273" width="692px" zoomAndPan="magnify"><defs><filter height="300%" id="fh7pv6m" width="300%" x="-1" y="-1"><feGaussianBlur result="blurOut" stdDeviation="2.0"/><feColorMatrix in="blurOut" result="blurOut2" type="matrix" values="0 0 0 0 0 0 0 0 0 0 0 0 0 0 0 0 0 0 .4 0"/><feOffset dx="4.0" dy="4.0" in="blurOut2" result="blurOut3"/><feBlend in="SourceGraphic" in2="blurOut3" mode="normal"/></filter></defs><g><text fill="#000000" font-family="sans-serif" font-size="18" lengthAdjust="spacingAndGlyphs" textLength="40" x="331" y="17.4023">MVC</text><!--entity Model--><rect fill="#FEFECE" filter="url(#fh7pv6m)" height="36.4883" style="stroke: #A80036; stroke-width: 1.5;" width="62" x="427.5" y="115.1992"/><rect fill="#FEFECE" height="5" style="stroke: #A80036; stroke-width: 1.5;" width="10" x="422.5" y="120.1992"/><rect fill="#FEFECE" height="5" style="stroke: #A80036; stroke-width: 1.5;" width="10" x="422.5" y="141.6875"/><text fill="#000000" font-family="sans-serif" font-size="14" lengthAdjust="spacingAndGlyphs" textLength="42" x="437.5" y="138.7344">Model</text><!--entity View--><rect fill="#FEFECE" filter="url(#fh7pv6m)" height="36.4883" style="stroke: #A80036; stroke-width: 1.5;" width="52" x="559.5" y="115.1992"/><rect fill="#FEFECE" height="5" style="stroke: #A80036; stroke-width: 1.5;" width="10" x="554.5" y="120.1992"/><rect fill="#FEFECE" height="5" style="stroke: #A80036; stroke-width: 1.5;" width="10" x="554.5" y="141.6875"/><text fill="#000000" font-family="sans-serif" font-size="14" lengthAdjust="spacingAndGlyphs" textLength="32" x="569.5" y="138.7344">View</text><polygon fill="#FBFB77" filter="url(#fh7pv6m)" points="487.5,29.1992,487.5,54.5098,683.5,54.5098,683.5,39.1992,673.5,29.1992,487.5,29.1992" style="stroke: #A80036; stroke-width: 1.0;"/><polygon fill="#FBFB77" points="487.5,29.1992,487.5,54.5098,581.5,54.5098,585.5,114.9722,589.5,54.5098,683.5,54.5098,683.5,39.1992,673.5,29.1992,487.5,29.1992" style="stroke: #A80036; stroke-width: 1.0;"/><line style="stroke: #A80036; stroke-width: 1.0;" x1="673.5" x2="673.5" y1="29.1992" y2="39.1992"/><line style="stroke: #A80036; stroke-width: 1.0;" x1="683.5" x2="673.5" y1="39.1992" y2="39.1992"/><text fill="#000000" font-family="sans-serif" font-size="13" lengthAdjust="spacingAndGlyphs" textLength="175" x="493.5" y="46.7676">"view : Model -&gt; Html Msg"</text><!--entity Msg--><rect fill="#FEFECE" filter="url(#fh7pv6m)" height="36.4883" style="stroke: #A80036; stroke-width: 1.5;" width="48" x="354.5" y="228.1992"/><rect fill="#FEFECE" height="5" style="stroke: #A80036; stroke-width: 1.5;" width="10" x="349.5" y="233.1992"/><rect fill="#FEFECE" height="5" style="stroke: #A80036; stroke-width: 1.5;" width="10" x="349.5" y="254.6875"/><text fill="#000000" font-family="sans-serif" font-size="14" lengthAdjust="spacingAndGlyphs" textLength="28" x="364.5" y="251.7344">Msg</text><!--entity Elm Platform--><rect fill="#FEFECE" filter="url(#fh7pv6m)" height="36.4883" style="stroke: #A80036; stroke-width: 1.5;" width="107" x="6" y="115.1992"/><rect fill="#FEFECE" height="5" style="stroke: #A80036; stroke-width: 1.5;" width="10" x="1" y="120.1992"/><rect fill="#FEFECE" height="5" style="stroke: #A80036; stroke-width: 1.5;" width="10" x="1" y="141.6875"/><text fill="#000000" font-family="sans-serif" font-size="14" lengthAdjust="spacingAndGlyphs" textLength="87" x="16" y="138.7344">Elm Platform</text><!--entity (Model, Cmd Msg)--><rect fill="#FEFECE" filter="url(#fh7pv6m)" height="36.4883" style="stroke: #A80036; stroke-width: 1.5;" width="144" x="192.5" y="115.1992"/><rect fill="#FEFECE" height="5" style="stroke: #A80036; stroke-width: 1.5;" width="10" x="187.5" y="120.1992"/><rect fill="#FEFECE" height="5" style="stroke: #A80036; stroke-width: 1.5;" width="10" x="187.5" y="141.6875"/><text fill="#000000" font-family="sans-serif" font-size="14" lengthAdjust="spacingAndGlyphs" textLength="124" x="202.5" y="138.7344">(Model, Cmd Msg)</text><polygon fill="#FBFB77" filter="url(#fh7pv6m)" points="109.5,29.1992,109.5,54.5098,419.5,54.5098,419.5,39.1992,409.5,29.1992,109.5,29.1992" style="stroke: #A80036; stroke-width: 1.0;"/><polygon fill="#FBFB77" points="109.5,29.1992,109.5,54.5098,260.5,54.5098,264.5,114.9722,268.5,54.5098,419.5,54.5098,419.5,39.1992,409.5,29.1992,109.5,29.1992" style="stroke: #A80036; stroke-width: 1.0;"/><line style="stroke: #A80036; stroke-width: 1.0;" x1="409.5" x2="409.5" y1="29.1992" y2="39.1992"/><line style="stroke: #A80036; stroke-width: 1.0;" x1="419.5" x2="409.5" y1="39.1992" y2="39.1992"/><text fill="#000000" font-family="sans-serif" font-size="13" lengthAdjust="spacingAndGlyphs" textLength="289" x="115.5" y="46.7676">"update : Msg -&gt; Model -&gt; (Model, Cmd Msg)</text><path d="M489.568,133.1992 C509.251,133.1992 534.619,133.1992 554.323,133.1992 " fill="none" style="stroke: #A80036; stroke-width: 1.0;"/><polygon fill="#A80036" points="559.462,133.1992,550.462,129.1992,554.462,133.1992,550.462,137.1992,559.462,133.1992" style="stroke: #A80036; stroke-width: 1.0;"/><text fill="#000000" font-family="sans-serif" font-size="13" lengthAdjust="spacingAndGlyphs" textLength="28" x="510.5" y="126.7676">view</text><path d="M559.283,148.2572 C520.394,169.1111 447.684,208.1004 407.336,229.7362 " fill="none" style="stroke: #A80036; stroke-width: 1.0; stroke-dasharray: 7.0,7.0;"/><polygon fill="#A80036" points="402.581,232.2863,412.4029,231.5583,406.9875,229.9234,408.6223,224.508,402.581,232.2863" style="stroke: #A80036; stroke-width: 1.0;"/><path d="M354.275,236.7697 C303.282,219.0262 183.803,177.4519 113.612,153.0282 " fill="none" style="stroke: #A80036; stroke-width: 1.0; stroke-dasharray: 7.0,7.0;"/><polygon fill="#A80036" points="108.645,151.2992,115.8312,158.0341,113.3674,152.9419,118.4596,150.4781,108.645,151.2992" style="stroke: #A80036; stroke-width: 1.0;"/><text fill="#000000" font-family="sans-serif" font-size="13" lengthAdjust="spacingAndGlyphs" textLength="51" x="239.5" y="194.7676">listenTo</text><path d="M113.094,133.1992 C135.687,133.1992 162.422,133.1992 187.091,133.1992 " fill="none" style="stroke: #A80036; stroke-width: 1.0;"/><polygon fill="#A80036" points="192.322,133.1992,183.322,129.1992,187.322,133.1992,183.322,137.1992,192.322,133.1992" style="stroke: #A80036; stroke-width: 1.0;"/><text fill="#000000" font-family="sans-serif" font-size="13" lengthAdjust="spacingAndGlyphs" textLength="43" x="131.25" y="126.7676">update</text><path d="M336.738,133.1992 C365.783,133.1992 398.002,133.1992 421.998,133.1992 " fill="none" style="stroke: #A80036; stroke-width: 1.0;"/><polygon fill="#A80036" points="427.297,133.1992,418.297,129.1992,422.297,133.1992,418.297,137.1992,427.297,133.1992" style="stroke: #A80036; stroke-width: 1.0;"/><text fill="#000000" font-family="sans-serif" font-size="13" lengthAdjust="spacingAndGlyphs" textLength="54" x="355" y="126.7676">generate</text></g></svg>