<?xml version="1.0" encoding="UTF-8" standalone="no"?><svg xmlns="http://www.w3.org/2000/svg" xmlns:xlink="http://www.w3.org/1999/xlink" contentScriptType="application/ecmascript" contentStyleType="text/css" height="110px" preserveAspectRatio="none" style="width:741px;height:110px;" version="1.1" viewBox="0 0 741 110" width="741px" zoomAndPan="magnify"><defs><filter height="300%" id="f3ubddi" width="300%" x="-1" y="-1"><feGaussianBlur result="blurOut" stdDeviation="2.0"/><feColorMatrix in="blurOut" result="blurOut2" type="matrix" values="0 0 0 0 0 0 0 0 0 0 0 0 0 0 0 0 0 0 .4 0"/><feOffset dx="4.0" dy="4.0" in="blurOut2" result="blurOut3"/><feBlend in="SourceGraphic" in2="blurOut3" mode="normal"/></filter></defs><g><!--entity (Model, Cmd Msg)--><rect fill="#FEFECE" filter="url(#f3ubddi)" height="36.4883" style="stroke: #A80036; stroke-width: 1.5;" width="144" x="6" y="65"/><rect fill="#FEFECE" height="5" style="stroke: #A80036; stroke-width: 1.5;" width="10" x="1" y="70"/><rect fill="#FEFECE" height="5" style="stroke: #A80036; stroke-width: 1.5;" width="10" x="1" y="91.4883"/><text fill="#000000" font-family="sans-serif" font-size="14" lengthAdjust="spacingAndGlyphs" textLength="124" x="16" y="88.5352">(Model, Cmd Msg)</text><!--entity Cmd Msg--><rect fill="#FEFECE" filter="url(#f3ubddi)" height="36.4883" style="stroke: #A80036; stroke-width: 1.5;" width="84" x="241" y="65"/><rect fill="#FEFECE" height="5" style="stroke: #A80036; stroke-width: 1.5;" width="10" x="236" y="70"/><rect fill="#FEFECE" height="5" style="stroke: #A80036; stroke-width: 1.5;" width="10" x="236" y="91.4883"/><text fill="#000000" font-family="sans-serif" font-size="14" lengthAdjust="spacingAndGlyphs" textLength="64" x="251" y="88.5352">Cmd Msg</text><!--entity JS--><rect fill="#FEFECE" filter="url(#f3ubddi)" height="36.4883" style="stroke: #A80036; stroke-width: 1.5;" width="32" x="413" y="65"/><rect fill="#FEFECE" height="5" style="stroke: #A80036; stroke-width: 1.5;" width="10" x="408" y="70"/><rect fill="#FEFECE" height="5" style="stroke: #A80036; stroke-width: 1.5;" width="10" x="408" y="91.4883"/><text fill="#000000" font-family="sans-serif" font-size="14" lengthAdjust="spacingAndGlyphs" textLength="12" x="423" y="88.5352">JS</text><!--entity Sub Msg--><rect fill="#FEFECE" filter="url(#f3ubddi)" height="36.4883" style="stroke: #A80036; stroke-width: 1.5;" width="78" x="515" y="65"/><rect fill="#FEFECE" height="5" style="stroke: #A80036; stroke-width: 1.5;" width="10" x="510" y="70"/><rect fill="#FEFECE" height="5" style="stroke: #A80036; stroke-width: 1.5;" width="10" x="510" y="91.4883"/><text fill="#000000" font-family="sans-serif" font-size="14" lengthAdjust="spacingAndGlyphs" textLength="58" x="525" y="88.5352">Sub Msg</text><!--entity Msg--><rect fill="#FEFECE" filter="url(#f3ubddi)" height="36.4883" style="stroke: #A80036; stroke-width: 1.5;" width="48" x="684" y="65"/><rect fill="#FEFECE" height="5" style="stroke: #A80036; stroke-width: 1.5;" width="10" x="679" y="70"/><rect fill="#FEFECE" height="5" style="stroke: #A80036; stroke-width: 1.5;" width="10" x="679" y="91.4883"/><text fill="#000000" font-family="sans-serif" font-size="14" lengthAdjust="spacingAndGlyphs" textLength="28" x="694" y="88.5352">Msg</text><path d="M150.275,83 C178.579,83 210.26,83 235.57,83 " fill="none" style="stroke: #A80036; stroke-width: 1.0;"/><polygon fill="#A80036" points="240.87,83,231.87,79,235.87,83,231.87,87,240.87,83" style="stroke: #A80036; stroke-width: 1.0;"/><text fill="#000000" font-family="sans-serif" font-size="13" lengthAdjust="spacingAndGlyphs" textLength="54" x="168.5" y="76.5684">generate</text><path d="M325.229,83 C352.247,83 386.149,83 407.7,83 " fill="none" style="stroke: #A80036; stroke-width: 1.0; stroke-dasharray: 7.0,7.0;"/><polygon fill="#A80036" points="412.901,83,403.901,79,407.901,83,403.901,87,412.901,83" style="stroke: #A80036; stroke-width: 1.0;"/><text fill="#000000" font-family="sans-serif" font-size="13" lengthAdjust="spacingAndGlyphs" textLength="51" x="343.5" y="76.5684">listenTo</text><path d="M445.086,83 C461.392,83 487.355,83 509.842,83 " fill="none" style="stroke: #A80036; stroke-width: 1.0;"/><polygon fill="#A80036" points="514.879,83,505.879,79,509.879,83,505.879,87,514.879,83" style="stroke: #A80036; stroke-width: 1.0;"/><text fill="#000000" font-family="sans-serif" font-size="13" lengthAdjust="spacingAndGlyphs" textLength="30" x="465" y="76.5684">send</text><path d="M321.934,64.9134 C370.679,44.4363 456.91,15.3418 532,27 C585.303,35.2757 644.553,56.8571 678.916,70.6834 " fill="none" style="stroke: #A80036; stroke-width: 1.0;"/><polygon fill="#A80036" points="683.802,72.6645,676.9643,65.5761,679.1683,70.7859,673.9585,72.9899,683.802,72.6645" style="stroke: #A80036; stroke-width: 1.0;"/><text fill="#000000" font-family="sans-serif" font-size="13" lengthAdjust="spacingAndGlyphs" textLength="54" x="477" y="31.5684">generate</text><path d="M593.259,83 C619.882,83 654.502,83 678.722,83 " fill="none" style="stroke: #A80036; stroke-width: 1.0;"/><polygon fill="#A80036" points="683.726,83,674.726,79,678.726,83,674.726,87,683.726,83" style="stroke: #A80036; stroke-width: 1.0;"/><text fill="#000000" font-family="sans-serif" font-size="13" lengthAdjust="spacingAndGlyphs" textLength="54" x="611.5" y="76.5684">generate</text></g></svg>