<?xml version="1.0" encoding="UTF-8" standalone="no"?><svg xmlns="http://www.w3.org/2000/svg" xmlns:xlink="http://www.w3.org/1999/xlink" contentScriptType="application/ecmascript" contentStyleType="text/css" height="110px" preserveAspectRatio="none" style="width:1178px;height:110px;" version="1.1" viewBox="0 0 1178 110" width="1178px" zoomAndPan="magnify"><defs><filter height="300%" id="ftsgkxy" width="300%" x="-1" y="-1"><feGaussianBlur result="blurOut" stdDeviation="2.0"/><feColorMatrix in="blurOut" result="blurOut2" type="matrix" values="0 0 0 0 0 0 0 0 0 0 0 0 0 0 0 0 0 0 .4 0"/><feOffset dx="4.0" dy="4.0" in="blurOut2" result="blurOut3"/><feBlend in="SourceGraphic" in2="blurOut3" mode="normal"/></filter></defs><g><!--entity Model--><rect fill="#FEFECE" filter="url(#ftsgkxy)" height="36.4883" style="stroke: #A80036; stroke-width: 1.5;" width="62" x="6" y="65"/><rect fill="#FEFECE" height="5" style="stroke: #A80036; stroke-width: 1.5;" width="10" x="1" y="70"/><rect fill="#FEFECE" height="5" style="stroke: #A80036; stroke-width: 1.5;" width="10" x="1" y="91.4883"/><text fill="#000000" font-family="sans-serif" font-size="14" lengthAdjust="spacingAndGlyphs" textLength="42" x="16" y="88.5352">Model</text><!--entity View--><rect fill="#FEFECE" filter="url(#ftsgkxy)" height="36.4883" style="stroke: #A80036; stroke-width: 1.5;" width="52" x="138" y="65"/><rect fill="#FEFECE" height="5" style="stroke: #A80036; stroke-width: 1.5;" width="10" x="133" y="70"/><rect fill="#FEFECE" height="5" style="stroke: #A80036; stroke-width: 1.5;" width="10" x="133" y="91.4883"/><text fill="#000000" font-family="sans-serif" font-size="14" lengthAdjust="spacingAndGlyphs" textLength="32" x="148" y="88.5352">View</text><!--entity Msg--><rect fill="#FEFECE" filter="url(#ftsgkxy)" height="36.4883" style="stroke: #A80036; stroke-width: 1.5;" width="48" x="260" y="65"/><rect fill="#FEFECE" height="5" style="stroke: #A80036; stroke-width: 1.5;" width="10" x="255" y="70"/><rect fill="#FEFECE" height="5" style="stroke: #A80036; stroke-width: 1.5;" width="10" x="255" y="91.4883"/><text fill="#000000" font-family="sans-serif" font-size="14" lengthAdjust="spacingAndGlyphs" textLength="28" x="270" y="88.5352">Msg</text><!--entity Elm Platform--><rect fill="#FEFECE" filter="url(#ftsgkxy)" height="36.4883" style="stroke: #A80036; stroke-width: 1.5;" width="107" x="395.5" y="65"/><rect fill="#FEFECE" height="5" style="stroke: #A80036; stroke-width: 1.5;" width="10" x="390.5" y="70"/><rect fill="#FEFECE" height="5" style="stroke: #A80036; stroke-width: 1.5;" width="10" x="390.5" y="91.4883"/><text fill="#000000" font-family="sans-serif" font-size="14" lengthAdjust="spacingAndGlyphs" textLength="87" x="405.5" y="88.5352">Elm Platform</text><!--entity (Model, Cmd Msg)--><rect fill="#FEFECE" filter="url(#ftsgkxy)" height="36.4883" style="stroke: #A80036; stroke-width: 1.5;" width="144" x="582" y="65"/><rect fill="#FEFECE" height="5" style="stroke: #A80036; stroke-width: 1.5;" width="10" x="577" y="70"/><rect fill="#FEFECE" height="5" style="stroke: #A80036; stroke-width: 1.5;" width="10" x="577" y="91.4883"/><text fill="#000000" font-family="sans-serif" font-size="14" lengthAdjust="spacingAndGlyphs" textLength="124" x="592" y="88.5352">(Model, Cmd Msg)</text><!--entity Cmd Msg--><rect fill="#FEFECE" filter="url(#ftsgkxy)" height="36.4883" style="stroke: #A80036; stroke-width: 1.5;" width="84" x="817" y="65"/><rect fill="#FEFECE" height="5" style="stroke: #A80036; stroke-width: 1.5;" width="10" x="812" y="70"/><rect fill="#FEFECE" height="5" style="stroke: #A80036; stroke-width: 1.5;" width="10" x="812" y="91.4883"/><text fill="#000000" font-family="sans-serif" font-size="14" lengthAdjust="spacingAndGlyphs" textLength="64" x="827" y="88.5352">Cmd Msg</text><!--entity JS--><rect fill="#FEFECE" filter="url(#ftsgkxy)" height="36.4883" style="stroke: #A80036; stroke-width: 1.5;" width="32" x="989" y="65"/><rect fill="#FEFECE" height="5" style="stroke: #A80036; stroke-width: 1.5;" width="10" x="984" y="70"/><rect fill="#FEFECE" height="5" style="stroke: #A80036; stroke-width: 1.5;" width="10" x="984" y="91.4883"/><text fill="#000000" font-family="sans-serif" font-size="14" lengthAdjust="spacingAndGlyphs" textLength="12" x="999" y="88.5352">JS</text><!--entity Sub Msg--><rect fill="#FEFECE" filter="url(#ftsgkxy)" height="36.4883" style="stroke: #A80036; stroke-width: 1.5;" width="78" x="1091" y="65"/><rect fill="#FEFECE" height="5" style="stroke: #A80036; stroke-width: 1.5;" width="10" x="1086" y="70"/><rect fill="#FEFECE" height="5" style="stroke: #A80036; stroke-width: 1.5;" width="10" x="1086" y="91.4883"/><text fill="#000000" font-family="sans-serif" font-size="14" lengthAdjust="spacingAndGlyphs" textLength="58" x="1101" y="88.5352">Sub Msg</text><path d="M68.0677,83 C87.7514,83 113.119,83 132.823,83 " fill="none" style="stroke: #A80036; stroke-width: 1.0;"/><polygon fill="#A80036" points="137.962,83,128.962,79,132.962,83,128.962,87,137.962,83" style="stroke: #A80036; stroke-width: 1.0;"/><text fill="#000000" font-family="sans-serif" font-size="13" lengthAdjust="spacingAndGlyphs" textLength="28" x="89" y="76.5684">view</text><path d="M190.25,83 C211.722,83 233.194,83 254.666,83 " fill="none" style="stroke: #A80036; stroke-width: 1.0; stroke-dasharray: 7.0,7.0;"/><polygon fill="#A80036" points="259.83,83,250.83,79,254.83,83,250.83,87,259.83,83" style="stroke: #A80036; stroke-width: 1.0;"/><path d="M308.346,83 C329.782,83 361.874,83 389.993,83 " fill="none" style="stroke: #A80036; stroke-width: 1.0; stroke-dasharray: 7.0,7.0;"/><polygon fill="#A80036" points="395.194,83,386.194,79,390.194,83,386.194,87,395.194,83" style="stroke: #A80036; stroke-width: 1.0;"/><text fill="#000000" font-family="sans-serif" font-size="13" lengthAdjust="spacingAndGlyphs" textLength="51" x="326.25" y="76.5684">listenTo</text><path d="M502.594,83 C525.187,83 551.922,83 576.591,83 " fill="none" style="stroke: #A80036; stroke-width: 1.0;"/><polygon fill="#A80036" points="581.822,83,572.822,79,576.822,83,572.822,87,581.822,83" style="stroke: #A80036; stroke-width: 1.0;"/><text fill="#000000" font-family="sans-serif" font-size="13" lengthAdjust="spacingAndGlyphs" textLength="43" x="520.75" y="76.5684">update</text><path d="M627.111,64.9082 C605.449,51.4838 573.657,34.2954 543,27 C451.185,5.1511 213.197,50.1159 120,65 C104.6982,67.4438 87.9719,70.9146 73.5696,74.1574 " fill="none" style="stroke: #A80036; stroke-width: 1.0;"/><polygon fill="#A80036" points="68.3756,75.3395,78.0389,77.2425,73.2509,74.2299,76.2635,69.442,68.3756,75.3395" style="stroke: #A80036; stroke-width: 1.0;"/><text fill="#000000" font-family="sans-serif" font-size="13" lengthAdjust="spacingAndGlyphs" textLength="54" x="488" y="31.5684">generate</text><path d="M726.275,83 C754.579,83 786.26,83 811.57,83 " fill="none" style="stroke: #A80036; stroke-width: 1.0;"/><polygon fill="#A80036" points="816.87,83,807.87,79,811.87,83,807.87,87,816.87,83" style="stroke: #A80036; stroke-width: 1.0;"/><text fill="#000000" font-family="sans-serif" font-size="13" lengthAdjust="spacingAndGlyphs" textLength="54" x="744.5" y="76.5684">generate</text><path d="M901.229,83 C928.247,83 962.149,83 983.7,83 " fill="none" style="stroke: #A80036; stroke-width: 1.0; stroke-dasharray: 7.0,7.0;"/><polygon fill="#A80036" points="988.901,83,979.901,79,983.901,83,979.901,87,988.901,83" style="stroke: #A80036; stroke-width: 1.0;"/><text fill="#000000" font-family="sans-serif" font-size="13" lengthAdjust="spacingAndGlyphs" textLength="51" x="919.5" y="76.5684">listenTo</text><path d="M1021.09,83 C1037.39,83 1063.36,83 1085.84,83 " fill="none" style="stroke: #A80036; stroke-width: 1.0;"/><polygon fill="#A80036" points="1090.88,83,1081.88,79,1085.88,83,1081.88,87,1090.88,83" style="stroke: #A80036; stroke-width: 1.0;"/><text fill="#000000" font-family="sans-serif" font-size="13" lengthAdjust="spacingAndGlyphs" textLength="30" x="1041" y="76.5684">send</text><path d="M816.72,74.1477 C720.941,54.6694 489.79,11.0514 413,27 C376.768,34.525 338.22,52.7693 312.799,66.4023 " fill="none" style="stroke: #A80036; stroke-width: 1.0;"/><polygon fill="#A80036" points="308.209,68.8905,318.0275,68.1179,312.6047,66.5077,314.215,61.0848,308.209,68.8905" style="stroke: #A80036; stroke-width: 1.0;"/><text fill="#000000" font-family="sans-serif" font-size="13" lengthAdjust="spacingAndGlyphs" textLength="54" x="414" y="31.5684">generate</text><path d="M1090.77,74.0307 C1074.79,70.6938 1056.09,67.19 1039,65 C757.685,28.956 685.489,35.4482 402,27 C377.122,26.2586 369.229,18.0625 346,27 C328.211,33.8443 312.349,48.4172 301.122,60.9811 " fill="none" style="stroke: #A80036; stroke-width: 1.0;"/><polygon fill="#A80036" points="297.79,64.8049,306.7183,60.6472,301.0747,61.0352,300.6868,55.3917,297.79,64.8049" style="stroke: #A80036; stroke-width: 1.0;"/><text fill="#000000" font-family="sans-serif" font-size="13" lengthAdjust="spacingAndGlyphs" textLength="54" x="347" y="31.5684">generate</text></g></svg>