<?xml version="1.0" encoding="UTF-8" standalone="no"?><svg xmlns="http://www.w3.org/2000/svg" xmlns:xlink="http://www.w3.org/1999/xlink" contentScriptType="application/ecmascript" contentStyleType="text/css" height="535px" preserveAspectRatio="none" style="width:643px;height:535px;" version="1.1" viewBox="0 0 643 535" width="643px" zoomAndPan="magnify"><defs><filter height="300%" id="fxugqf5" width="300%" x="-1" y="-1"><feGaussianBlur result="blurOut" stdDeviation="2.0"/><feColorMatrix in="blurOut" result="blurOut2" type="matrix" values="0 0 0 0 0 0 0 0 0 0 0 0 0 0 0 0 0 0 .4 0"/><feOffset dx="4.0" dy="4.0" in="blurOut2" result="blurOut3"/><feBlend in="SourceGraphic" in2="blurOut3" mode="normal"/></filter></defs><g><text fill="#000000" font-family="sans-serif" font-size="14" font-weight="bold" lengthAdjust="spacingAndGlyphs" textLength="83" x="282" y="23.5352">Elm + Okta</text><rect fill="#FFFFFF" filter="url(#fxugqf5)" height="387.6816" style="stroke: #A80036; stroke-width: 1.0;" width="10" x="33" y="99.9766"/><rect fill="#FFFFFF" filter="url(#fxugqf5)" height="225.1738" style="stroke: #A80036; stroke-width: 1.0;" width="10" x="38" y="253.1738"/><rect fill="#FFFFFF" filter="url(#fxugqf5)" height="378.3711" style="stroke: #A80036; stroke-width: 1.0;" width="10" x="189" y="99.9766"/><rect fill="#FFFFFF" filter="url(#fxugqf5)" height="87.9316" style="stroke: #A80036; stroke-width: 1.0;" width="10" x="412" y="282.4844"/><rect fill="#FFFFFF" filter="url(#fxugqf5)" height="29.3105" style="stroke: #A80036; stroke-width: 1.0;" width="10" x="594" y="311.7949"/><rect fill="#FFFFFF" filter="url(#fxugqf5)" height="292.75" style="stroke: #000000; stroke-width: 2.0;" width="621" x="13" y="157.5977"/><rect fill="#FFFFFF" height="233.1289" style="stroke: none; stroke-width: 1.0;" width="621" x="13" y="217.2188"/><line style="stroke: #A80036; stroke-width: 1.0; stroke-dasharray: 5.0,5.0;" x1="38" x2="38" y1="68.9766" y2="496.6582"/><line style="stroke: #A80036; stroke-width: 1.0; stroke-dasharray: 5.0,5.0;" x1="193.5" x2="193.5" y1="68.9766" y2="496.6582"/><line style="stroke: #A80036; stroke-width: 1.0; stroke-dasharray: 5.0,5.0;" x1="417" x2="417" y1="68.9766" y2="496.6582"/><line style="stroke: #A80036; stroke-width: 1.0; stroke-dasharray: 5.0,5.0;" x1="599" x2="599" y1="68.9766" y2="496.6582"/><rect fill="#FEFECE" filter="url(#fxugqf5)" height="30.4883" style="stroke: #A80036; stroke-width: 1.5;" width="26" x="23" y="33.4883"/><text fill="#000000" font-family="sans-serif" font-size="14" lengthAdjust="spacingAndGlyphs" textLength="12" x="30" y="54.0234">JS</text><rect fill="#FEFECE" filter="url(#fxugqf5)" height="30.4883" style="stroke: #A80036; stroke-width: 1.5;" width="26" x="23" y="495.6582"/><text fill="#000000" font-family="sans-serif" font-size="14" lengthAdjust="spacingAndGlyphs" textLength="12" x="30" y="516.1934">JS</text><rect fill="#FEFECE" filter="url(#fxugqf5)" height="30.4883" style="stroke: #A80036; stroke-width: 1.5;" width="39" x="172.5" y="33.4883"/><text fill="#000000" font-family="sans-serif" font-size="14" lengthAdjust="spacingAndGlyphs" textLength="25" x="179.5" y="54.0234">Elm</text><rect fill="#FEFECE" filter="url(#fxugqf5)" height="30.4883" style="stroke: #A80036; stroke-width: 1.5;" width="39" x="172.5" y="495.6582"/><text fill="#000000" font-family="sans-serif" font-size="14" lengthAdjust="spacingAndGlyphs" textLength="25" x="179.5" y="516.1934">Elm</text><rect fill="#FEFECE" filter="url(#fxugqf5)" height="30.4883" style="stroke: #A80036; stroke-width: 1.5;" width="144" x="343" y="33.4883"/><text fill="#000000" font-family="sans-serif" font-size="14" lengthAdjust="spacingAndGlyphs" textLength="130" x="350" y="54.0234">Okta Signin Widget</text><rect fill="#FEFECE" filter="url(#fxugqf5)" height="30.4883" style="stroke: #A80036; stroke-width: 1.5;" width="144" x="343" y="495.6582"/><text fill="#000000" font-family="sans-serif" font-size="14" lengthAdjust="spacingAndGlyphs" textLength="130" x="350" y="516.1934">Okta Signin Widget</text><rect fill="#FEFECE" filter="url(#fxugqf5)" height="30.4883" style="stroke: #A80036; stroke-width: 1.5;" width="46" x="574" y="33.4883"/><text fill="#000000" font-family="sans-serif" font-size="14" lengthAdjust="spacingAndGlyphs" textLength="32" x="581" y="54.0234">Okta</text><rect fill="#FEFECE" filter="url(#fxugqf5)" height="30.4883" style="stroke: #A80036; stroke-width: 1.5;" width="46" x="574" y="495.6582"/><text fill="#000000" font-family="sans-serif" font-size="14" lengthAdjust="spacingAndGlyphs" textLength="32" x="581" y="516.1934">Okta</text><rect fill="#FFFFFF" filter="url(#fxugqf5)" height="387.6816" style="stroke: #A80036; stroke-width: 1.0;" width="10" x="33" y="99.9766"/><rect fill="#FFFFFF" filter="url(#fxugqf5)" height="225.1738" style="stroke: #A80036; stroke-width: 1.0;" width="10" x="38" y="253.1738"/><rect fill="#FFFFFF" filter="url(#fxugqf5)" height="378.3711" style="stroke: #A80036; stroke-width: 1.0;" width="10" x="189" y="99.9766"/><rect fill="#FFFFFF" filter="url(#fxugqf5)" height="87.9316" style="stroke: #A80036; stroke-width: 1.0;" width="10" x="412" y="282.4844"/><rect fill="#FFFFFF" filter="url(#fxugqf5)" height="29.3105" style="stroke: #A80036; stroke-width: 1.0;" width="10" x="594" y="311.7949"/><polygon fill="#A80036" points="177,95.9766,187,99.9766,177,103.9766,181,99.9766" style="stroke: #A80036; stroke-width: 1.0;"/><line style="stroke: #A80036; stroke-width: 1.0;" x1="43" x2="183" y1="99.9766" y2="99.9766"/><text fill="#000000" font-family="sans-serif" font-size="13" font-weight="bold" lengthAdjust="spacingAndGlyphs" textLength="9" x="50" y="95.5449">1</text><text fill="#000000" font-family="sans-serif" font-size="13" lengthAdjust="spacingAndGlyphs" textLength="102" x="63" y="95.5449">&lt;&lt;fullscreen&gt;&gt;</text><line style="stroke: #A80036; stroke-width: 1.0;" x1="199" x2="241" y1="129.5977" y2="129.5977"/><line style="stroke: #A80036; stroke-width: 1.0;" x1="241" x2="241" y1="129.5977" y2="142.5977"/><line style="stroke: #A80036; stroke-width: 1.0;" x1="200" x2="241" y1="142.5977" y2="142.5977"/><polygon fill="#A80036" points="210,138.5977,200,142.5977,210,146.5977,206,142.5977" style="stroke: #A80036; stroke-width: 1.0;"/><text fill="#000000" font-family="sans-serif" font-size="13" font-weight="bold" lengthAdjust="spacingAndGlyphs" textLength="9" x="206" y="124.8555">2</text><text fill="#000000" font-family="sans-serif" font-size="13" lengthAdjust="spacingAndGlyphs" textLength="122" x="219" y="124.8555">&lt;&lt;model status&gt;&gt;</text><rect fill="none" height="292.75" style="stroke: #000000; stroke-width: 2.0;" width="621" x="13" y="157.5977"/><polygon fill="#EEEEEE" points="13,157.5977,75,157.5977,75,164.5977,65,174.5977,13,174.5977,13,157.5977" style="stroke: #000000; stroke-width: 2.0;"/><text fill="#000000" font-family="sans-serif" font-size="13" font-weight="bold" lengthAdjust="spacingAndGlyphs" textLength="17" x="28" y="171.166">alt</text><text fill="#000000" font-family="sans-serif" font-size="11" font-weight="bold" lengthAdjust="spacingAndGlyphs" textLength="82" x="90" y="170.2324">[isLoginStatus]</text><line style="stroke: #A80036; stroke-width: 1.0;" x1="199" x2="241" y1="196.2188" y2="196.2188"/><line style="stroke: #A80036; stroke-width: 1.0;" x1="241" x2="241" y1="196.2188" y2="209.2188"/><line style="stroke: #A80036; stroke-width: 1.0;" x1="200" x2="241" y1="209.2188" y2="209.2188"/><polygon fill="#A80036" points="210,205.2188,200,209.2188,210,213.2188,206,209.2188" style="stroke: #A80036; stroke-width: 1.0;"/><text fill="#000000" font-family="sans-serif" font-size="13" font-weight="bold" lengthAdjust="spacingAndGlyphs" textLength="9" x="206" y="191.4766">3</text><text fill="#000000" font-family="sans-serif" font-size="13" lengthAdjust="spacingAndGlyphs" textLength="177" x="219" y="191.4766">&lt;&lt;view - show user info&gt;&gt;</text><line style="stroke: #000000; stroke-width: 1.0; stroke-dasharray: 2.0,2.0;" x1="13" x2="634" y1="218.2188" y2="218.2188"/><text fill="#000000" font-family="sans-serif" font-size="11" font-weight="bold" lengthAdjust="spacingAndGlyphs" textLength="101" x="18" y="228.8535">[isNotLoginStatus]</text><polygon fill="#A80036" points="59,249.1738,49,253.1738,59,253.1738" style="stroke: #A80036; stroke-width: 1.0;"/><line style="stroke: #A80036; stroke-width: 1.0;" x1="48" x2="188" y1="253.1738" y2="253.1738"/><text fill="#000000" font-family="sans-serif" font-size="13" font-weight="bold" lengthAdjust="spacingAndGlyphs" textLength="9" x="65" y="248.7422">4</text><text fill="#000000" font-family="sans-serif" font-size="13" lengthAdjust="spacingAndGlyphs" textLength="109" x="78" y="248.7422">&lt;&lt;show login&gt;&gt;</text><polygon fill="#A80036" points="400,278.4844,410,282.4844,400,282.4844" style="stroke: #A80036; stroke-width: 1.0;"/><line style="stroke: #A80036; stroke-width: 1.0;" x1="48" x2="411" y1="282.4844" y2="282.4844"/><text fill="#000000" font-family="sans-serif" font-size="13" font-weight="bold" lengthAdjust="spacingAndGlyphs" textLength="9" x="55" y="278.0527">5</text><text fill="#000000" font-family="sans-serif" font-size="13" lengthAdjust="spacingAndGlyphs" textLength="91" x="68" y="278.0527">&lt;&lt;renderEl&gt;&gt;</text><polygon fill="#A80036" points="582,307.7949,592,311.7949,582,315.7949,586,311.7949" style="stroke: #A80036; stroke-width: 1.0;"/><line style="stroke: #A80036; stroke-width: 1.0;" x1="422" x2="588" y1="311.7949" y2="311.7949"/><text fill="#000000" font-family="sans-serif" font-size="13" font-weight="bold" lengthAdjust="spacingAndGlyphs" textLength="9" x="429" y="307.3633">6</text><text fill="#000000" font-family="sans-serif" font-size="13" lengthAdjust="spacingAndGlyphs" textLength="79" x="442" y="307.3633">&lt;&lt;signin&gt;&gt;</text><polygon fill="#A80036" points="433,337.1055,423,341.1055,433,345.1055,429,341.1055" style="stroke: #A80036; stroke-width: 1.0;"/><line style="stroke: #A80036; stroke-width: 1.0; stroke-dasharray: 2.0,2.0;" x1="427" x2="598" y1="341.1055" y2="341.1055"/><text fill="#000000" font-family="sans-serif" font-size="13" font-weight="bold" lengthAdjust="spacingAndGlyphs" textLength="9" x="439" y="336.6738">7</text><text fill="#000000" font-family="sans-serif" font-size="13" lengthAdjust="spacingAndGlyphs" textLength="135" x="452" y="336.6738">&lt;&lt;token + profile&gt;&gt;</text><polygon fill="#A80036" points="59,366.416,49,370.416,59,374.416,55,370.416" style="stroke: #A80036; stroke-width: 1.0;"/><line style="stroke: #A80036; stroke-width: 1.0; stroke-dasharray: 2.0,2.0;" x1="53" x2="416" y1="370.416" y2="370.416"/><text fill="#000000" font-family="sans-serif" font-size="13" font-weight="bold" lengthAdjust="spacingAndGlyphs" textLength="9" x="65" y="365.9844">8</text><text fill="#000000" font-family="sans-serif" font-size="13" lengthAdjust="spacingAndGlyphs" textLength="135" x="78" y="365.9844">&lt;&lt;token + profile&gt;&gt;</text><polygon fill="#A80036" points="177,395.7266,187,399.7266,177,399.7266" style="stroke: #A80036; stroke-width: 1.0;"/><line style="stroke: #A80036; stroke-width: 1.0; stroke-dasharray: 2.0,2.0;" x1="48" x2="188" y1="399.7266" y2="399.7266"/><text fill="#000000" font-family="sans-serif" font-size="13" font-weight="bold" lengthAdjust="spacingAndGlyphs" textLength="9" x="55" y="395.2949">9</text><text fill="#000000" font-family="sans-serif" font-size="13" lengthAdjust="spacingAndGlyphs" textLength="67" x="68" y="395.2949">&lt;&lt;user&gt;&gt;</text><line style="stroke: #A80036; stroke-width: 1.0;" x1="199" x2="241" y1="429.3477" y2="429.3477"/><line style="stroke: #A80036; stroke-width: 1.0;" x1="241" x2="241" y1="429.3477" y2="442.3477"/><line style="stroke: #A80036; stroke-width: 1.0;" x1="200" x2="241" y1="442.3477" y2="442.3477"/><polygon fill="#A80036" points="210,438.3477,200,442.3477,210,446.3477,206,442.3477" style="stroke: #A80036; stroke-width: 1.0;"/><text fill="#000000" font-family="sans-serif" font-size="13" font-weight="bold" lengthAdjust="spacingAndGlyphs" textLength="18" x="206" y="424.6055">10</text><text fill="#000000" font-family="sans-serif" font-size="13" lengthAdjust="spacingAndGlyphs" textLength="177" x="228" y="424.6055">&lt;&lt;view - show user info&gt;&gt;</text><polygon fill="#A80036" points="54,474.3477,44,478.3477,54,482.3477,50,478.3477" style="stroke: #A80036; stroke-width: 1.0;"/><line style="stroke: #A80036; stroke-width: 1.0;" x1="48" x2="193" y1="478.3477" y2="478.3477"/><text fill="#000000" font-family="sans-serif" font-size="13" font-weight="bold" lengthAdjust="spacingAndGlyphs" textLength="18" x="60" y="473.916">11</text><text fill="#000000" font-family="sans-serif" font-size="13" lengthAdjust="spacingAndGlyphs" textLength="67" x="82" y="473.916">&lt;&lt;void&gt;&gt;</text></g></svg>